<?xml version="1.0" standalone="no"?>
<!DOCTYPE svg PUBLIC "-//W3C//DTD SVG 1.1//EN" "http://www.w3.org/Graphics/SVG/1.1/DTD/svg11.dtd"> 
<svg width="3000" height="123" viewBox="0 0 3000 123" xmlns="http://www.w3.org/2000/svg" xmlns:xlink="http://www.w3.org/1999/xlink" version="1.1">
	<defs>
		<linearGradient id="normalGradient" x1="0%" y1="0%" x2="0%" y2="100%">
	    	<stop offset="0%" style="stop-color:#CCCCCC;stop-opacity:1" />
	    	<stop offset="100%" style="stop-color:#888888;stop-opacity:1" />
	    </linearGradient>
	    <linearGradient id="activeGradient" x1="0%" y1="0%" x2="0%" y2="100%">
	    	<stop offset="0%" style="stop-color:#FFFFFF;stop-opacity:1" />
	    	<stop offset="100%" style="stop-color:#CCCCCC;stop-opacity:1" />
	    </linearGradient>
	</defs>
	<!-- Play -->
	<g transform="translate(0,0)">
		<polygon points="0,0 0,20 19,10" fill="url(#normalGradient)" />
	</g>
	<!-- Play Active -->
	<g transform="translate(19,0)">
		<polygon points="0,0 0,20 19,10" fill="url(#activeGradient)"/>
	</g>
	<!-- Pause -->
	<g transform="translate(38,0)">
		<rect width="7" height="21" fill="url(#normalGradient)" />
		<rect x="12"  width="7" height="21" fill="url(#normalGradient)" />
	</g>
	<!-- Pause Active -->
	<g transform="translate(57,0)">
		<rect width="7" height="21" fill="url(#activeGradient)" />
		<rect x="12"  width="7" height="21" fill="url(#activeGradient)" />
	</g>
	<!-- Rewind -->
	<g transform="translate(76,0) scale(0.27,0.27)">
		<path d="M 20 50 a 30 30 0 1 0 30 -30" stroke-width="20" stroke="url(#normalGradient)" fill="none" />
		<polygon points="25,20 52,40 52,0" fill="#CCC"/>
	</g>
	<!-- Rewind Active-->
	<g transform="translate(103,0) scale(0.27,0.27)">
		<path d="M 20 50 a 30 30 0 1 0 30 -30" stroke-width="20" stroke="url(#activeGradient)" fill="none" />
		<polygon points="25,20 52,40 52,0" fill="#FFF"/>
	</g>
	<!-- Enter Full Screen -->
	<g transform="translate(130,0) scale(0.25,0.21)">
		<rect x="25" y="0" rx="5" ry="5" width="75" height="75" fill="url(#normalGradient)" />
		<rect x="4" y="46" rx="5" ry="5" width="50" height="50" stroke="url(#normalGradient)" style="stroke-width:8;fill:none;"/>
	</g>
	<!-- Enter Full Screen Active -->
	<g transform="translate(155,0) scale(0.25,0.21)">
		<rect x="25" y="0" rx="5" ry="5" width="75" height="75" fill="url(#activeGradient)" />
		<rect x="4" y="46" rx="5" ry="5" width="50" height="50" stroke="url(#activeGradient)" style="stroke-width:8;fill:none;"/>
	</g>
	<!-- Exit Full Screen -->
	<g transform="translate(180,0) scale(0.25,0.21)">
		<rect x="21" y="4" rx="5" ry="5" width="75" height="75" style="stroke:#888;stroke-width:8;fill:none;" />
		<rect x="0" y="50" rx="5" ry="5" width="50" height="50" style="fill:#888;" />
	</g>
	<!-- Exit Full Screen -->
	<g transform="translate(205,0) scale(0.25,0.21)">
		<rect x="21" y="4" rx="5" ry="5" width="75" height="75" style="stroke:#FFF;stroke-width:8;fill:none;" />
		<rect x="0" y="50" rx="5" ry="5" width="50" height="50" style="fill:#FFF;" />
	</g>
	<!-- Play Icon -->
	<g transform="translate(230,0) scale(1.18,1.18)">
		<circle cx="50" cy="50" r="45" stroke-width="5" stroke="#888" fill="none" />
		<polygon points="35,25 35,75 75,50" fill="#888" />
	</g>
	<!-- Play Icon Active -->
	<g transform="translate(348,0) scale(1.18,1.18)">
		<circle cx="50" cy="50" r="45" stroke-width="5" stroke="#FFF" fill="none" />
		<polygon points="35,25 35,75 75,50" fill="#FFF" />
	</g>
	<!-- Replay -->
	<g transform="translate(466,0) scale(0.71,0.71)">
		<path d="M 10 25 a 7 7 0 1 0 7 -7" stroke-width="4" stroke="#888" fill="none" />
		<polygon points="12,18 17.2,23.5 17.2,12.5" fill="#888"/>
	</g>
	<!-- Replay Actice -->
	<g transform="translate(537,0) scale(0.71,0.71)">
		<path d="M 10 25 a 7 7 0 1 0 7 -7" stroke-width="4" stroke="#FFF" fill="none" />
		<polygon points="12,18 17.2,23.5 17.2,12.5" fill="#FFF"/>
	</g>
	<!-- Volume -->
	<g transform="translate(590,0) ">
		<polygon fill="url(#normalGradient)" points="3.742,6.904 -0.045,6.877 -0.045,12.911 3.742,12.911 8.529,16.951 8.529,2.84 "/>
		<path fill="url(#normalGradient)" d="M14.258,0.128l-1.16,1.984c2.11,0.987,3.71,4.261,3.71,8.025c0,3.73-1.571,6.982-3.657,7.998
			l1.134,1.993c2.726-1.511,4.668-5.414,4.668-9.991C18.955,5.543,17,1.628,14.258,0.128z"/>
		<path fill="url(#normalGradient)" d="M12.01,4.035L10.9,5.934c0.915,0.887,1.535,2.418,1.535,4.121c0,1.652-0.584,3.145-1.456,4.042
			l1.096,1.922c1.479-1.271,2.459-3.467,2.459-5.964C14.534,7.521,13.526,5.297,12.01,4.035z"/>
	</g>
	<!-- Volume Active -->
	<g transform="translate(650,0) ">
		<polygon fill="url(#activeGradient)" points="3.742,6.904 -0.045,6.877 -0.045,12.911 3.742,12.911 8.529,16.951 8.529,2.84 "/>
		<path fill="url(#activeGradient)" d="M14.258,0.128l-1.16,1.984c2.11,0.987,3.71,4.261,3.71,8.025c0,3.73-1.571,6.982-3.657,7.998
			l1.134,1.993c2.726-1.511,4.668-5.414,4.668-9.991C18.955,5.543,17,1.628,14.258,0.128z"/>
		<path fill="url(#activeGradient)" d="M12.01,4.035L10.9,5.934c0.915,0.887,1.535,2.418,1.535,4.121c0,1.652-0.584,3.145-1.456,4.042
			l1.096,1.922c1.479-1.271,2.459-3.467,2.459-5.964C14.534,7.521,13.526,5.297,12.01,4.035z"/>
	</g>
	<!-- Mute -->
	<g transform="translate(710,0) ">
		<polygon fill="url(#normalGradient)" points="3.742,6.904 -0.045,6.877 -0.045,12.911 3.742,12.911 8.529,16.951 8.529,2.84 "/>
		<path fill="url(#normalGradient)" d="M14.258,0.128l-1.16,1.984c2.11,0.987,3.71,4.261,3.71,8.025c0,3.73-1.571,6.982-3.657,7.998 l1.134,1.993c2.726-1.511,4.668-5.414,4.668-9.991C18.955,5.543,17,1.628,14.258,0.128z"/>
		<path fill="url(#normalGradient)" d="M12.01,4.035L10.9,5.934c0.915,0.887,1.535,2.418,1.535,4.121c0,1.652-0.584,3.145-1.456,4.042 l1.096,1.922c1.479-1.271,2.459-3.467,2.459-5.964C14.534,7.521,13.526,5.297,12.01,4.035z"/>
		<line fill="none" stroke="#E93A00" stroke-width="2" x1="17.688" y1="0.875" x2="1" y2="18.935"/>
	</g>
	<!-- Mute Active -->
	<g transform="translate(770,0) ">
		<polygon fill="url(#activeGradient)" points="3.742,6.904 -0.045,6.877 -0.045,12.911 3.742,12.911 8.529,16.951 8.529,2.84 "/>
		<path fill="url(#activeGradient)" d="M14.258,0.128l-1.16,1.984c2.11,0.987,3.71,4.261,3.71,8.025c0,3.73-1.571,6.982-3.657,7.998 l1.134,1.993c2.726-1.511,4.668-5.414,4.668-9.991C18.955,5.543,17,1.628,14.258,0.128z"/>
		<path fill="url(#activeGradient)" d="M12.01,4.035L10.9,5.934c0.915,0.887,1.535,2.418,1.535,4.121c0,1.652-0.584,3.145-1.456,4.042 l1.096,1.922c1.479-1.271,2.459-3.467,2.459-5.964C14.534,7.521,13.526,5.297,12.01,4.035z"/>
		<line fill="none" stroke="#E93A00" stroke-width="2" x1="17.688" y1="0.875" x2="1" y2="18.935"/>
	</g>
	
	<!-- PlayList -->
	<g transform="translate(810,0) ">
		<rect x="1" y="0" fill="url(#normalGradient)" width="4" height="4"/>
		<rect x="7" y="0" fill="url(#normalGradient)" width="18" height="4"/>
		<rect x="1" y="7" fill="url(#normalGradient)" width="4" height="4"/>
		<rect x="7" y="7" fill="url(#normalGradient)" width="18" height="4"/>
		<rect x="1" y="14" fill="url(#normalGradient)" width="4" height="4"/>
		<rect x="7" y="14" fill="url(#normalGradient)" width="18" height="4"/>
	</g>
	
	
	<!-- PlayList Active -->
	<g transform="translate(850,0) ">
		<rect x="1" y="0" fill="url(#activeGradient)" width="4" height="4"/>
		<rect x="7" y="0" fill="url(#activeGradient)" width="18" height="4"/>
		<rect x="1" y="7" fill="url(#activeGradient)" width="4" height="4"/>
		<rect x="7" y="7" fill="url(#activeGradient)" width="18" height="4"/>
		<rect x="1" y="14" fill="url(#activeGradient)" width="4" height="4"/>
		<rect x="7" y="14" fill="url(#activeGradient)" width="18" height="4"/>
	</g>
	
</svg>